<?xml version="1.0" encoding="UTF-8"?>
<svg width="32" height="32" viewBox="0 0 32 32" fill="none" xmlns="http://www.w3.org/2000/svg">
  <rect width="32" height="32" rx="8" fill="#3B82F6"/>
  <path d="M16 8C12.9151 8 10 10.9151 10 14C10 17.0849 12.9151 20 16 20C19.0849 20 22 17.0849 22 14C22 10.9151 19.0849 8 16 8ZM16 18C13.7909 18 12 16.2091 12 14C12 11.7909 13.7909 10 16 10C18.2091 10 20 11.7909 20 14C20 16.2091 18.2091 18 16 18Z" fill="white"/>
  <path d="M16 12C14.6863 12 13.5 13.1863 13.5 14.5C13.5 15.8137 14.6863 17 16 17C17.3137 17 18.5 15.8137 18.5 14.5C18.5 13.1863 17.3137 12 16 12ZM16 15.5C15.4477 15.5 15 15.0523 15 14.5C15 13.9477 15.4477 13.5 16 13.5C16.5523 13.5 17 13.9477 17 14.5C17 15.0523 16.5523 15.5 16 15.5Z" fill="white"/>
</svg> 